<svg xmlns="http://www.w3.org/2000/svg" height="24px" viewBox="0 0 24 24" width="24px" fill="#000000"><path d="M0 0h24v24H0V0z" fill="none"/><path d="M7 18c-1.1 0-1.99.9-1.99 2S5.9 22 7 22s2-.9 2-2-.9-2-2-2zM1 3c0 .55.45 1 1 1h1l3.6 7.59L7.58 12.85c-.12.23-.18.49-.18.78 0 1.1.9 2 2 2h10c.55 0 1-.45 1-1s-.45-1-1-1H9.17c-.14 0-.27-.07-.35-.18l-.07-.13L8.1 11h7.45c.75 0 1.41-.41 1.75-1.03l3.58-6.49c.11-.2.16-.43.16-.68 0-.55-.45-1-1-1H4.21l-.94-2H1zm16 15c-1.1 0-1.99.9-1.99 2s.89 2 1.99 2 2-.9 2-2-.9-2-2-2z"/></svg> 